# xmcd
#
# Track frame offsets:
#	150
#	13298
#	26760
#	36489
#	49656
#	64949
#	78247
#	89595
#	105121
#	117773
#	126664
#	141792
#	156395
#	174251
#	186694
#	203801
#	219556
#	235762
#	255447
#	272772
#	284176
#	298169
#	312640
#	324100
#	338484
#
# Disc length: 4719 seconds
#
# Revision: 0
# Processed by: cddbd v1.5.1PL0 Copyright (c) Steve Scherf et al.
# Submitted via: EasyCDDAExtractor 8.0.1.1
#
DISCID=81126d19
DTITLE=Sorsakoski Topi - Evergreens and Kalliovuorten kuu
DYEAR=1900
DGENRE=iskelmä
TTITLE0=elämää
TTITLE1=ollaan yhdessä taas
TTITLE2=kaiken heitit sä pois
TTITLE3=syyskuun laulu
TTITLE4=angelica
TTITLE5=tom dooley
TTITLE6=kitara ja meri
TTITLE7=loputon blues
TTITLE8=yö kerran unhoa annoit
TTITLE9=rakkautta huhtikuussa
TTITLE10=kohti alaskaa
TTITLE11=kun lähdön aika on
TTITLE12=haavoittuneet
TTITLE13=en koskaan
TTITLE14=kaukana silloin
TTITLE15=kolmostie
TTITLE16=kalliovuorten kuu
TTITLE17=olkoon niin
TTITLE18=sunnuntaina kohdataan
TTITLE19=yölliset kirjeet
TTITLE20=tullessa sateen
TTITLE21=riippumatto
TTITLE22=unia näin
TTITLE23=käy ohitsein
TTITLE24=kaipaa en eiliseen
EXTD=
EXTT0=
EXTT1=
EXTT2=
EXTT3=
EXTT4=
EXTT5=
EXTT6=
EXTT7=
EXTT8=
EXTT9=
EXTT10=
EXTT11=
EXTT12=
EXTT13=
EXTT14=
EXTT15=
EXTT16=
EXTT17=
EXTT18=
EXTT19=
EXTT20=
EXTT21=
EXTT22=
EXTT23=
EXTT24=
PLAYORDER=
